# xmcd
#
# Track frame offsets:
#	150
#	16810
#	29741
#	46726
#	62276
#	82722
#	99816
#	113660
#	126200
#	144378
#	156955
#	174096
#
# Disc length: 2554 seconds
#
# Revision: 1
# Processed by: cddbd v1.5.2PL0 Copyright (c) Steve Scherf et al.
# Submitted via: EasyCDDAExtractor 11.1.0.1
#
DISCID=8009f80c
DTITLE=Eric Bibb - Get Onboard
DYEAR=2008
DGENRE=Blues
TTITLE0=Spirit I Am
TTITLE1=The Promised Land
TTITLE2=New Beale Street Blues
TTITLE3=Get Onboard
TTITLE4=If Our Hearts Aint In It (feat. Bonnie Raitt)
TTITLE5=Pockets
TTITLE6=River Blues
TTITLE7=Deep In My Soul
TTITLE8=Conversation (with Ruthie Foster)
TTITLE9=God's Kingdom
TTITLE10=Step By Step
TTITLE11=Stayed On Freedom
EXTD=
EXTT0=
EXTT1=
EXTT2=
EXTT3=
EXTT4=
EXTT5=
EXTT6=
EXTT7=
EXTT8=
EXTT9=
EXTT10=
EXTT11=
PLAYORDER=
